<?xml version="1.0" standalone="no"?>
<!DOCTYPE svg PUBLIC "-//W3C//DTD SVG 20010904//EN"
 "http://www.w3.org/TR/2001/REC-SVG-20010904/DTD/svg10.dtd">
<svg version="1.0" xmlns="http://www.w3.org/2000/svg"
 width="500.000000pt" height="500.000000pt" viewBox="0 0 500.000000 500.000000"
 preserveAspectRatio="xMidYMid meet">

<g transform="translate(0.000000,500.000000) scale(0.100000,-0.100000)"
fill="#000000" stroke="none">
<path d="M0 2500 l0 -2500 2500 0 2500 0 0 2500 0 2500 -2500 0 -2500 0 0
-2500z m2851 571 c179 -311 325 -567 323 -569 -1 -2 -32 13 -68 34 l-65 38
-268 467 -268 468 -58 -6 -57 -6 52 92 c51 88 53 90 68 69 8 -12 162 -276 341
-587z m-364 215 c-3 -8 -82 -147 -175 -309 -94 -163 -168 -298 -164 -301 3 -3
53 -6 112 -6 l106 0 65 114 c35 63 67 112 71 110 3 -2 23 -35 44 -72 20 -37
43 -76 50 -87 12 -18 6 -33 -49 -130 l-63 -110 -336 -3 -337 -2 186 322 c102
178 206 360 232 405 l46 83 109 0 c88 0 107 -3 103 -14z m39 -1707 c-20 -75
-37 -121 -43 -115 -3 3 4 38 16 78 29 98 31 102 36 96 3 -3 -1 -29 -9 -59z
m267 -21 c-9 -29 -20 -72 -26 -95 -6 -24 -14 -43 -19 -43 -10 0 -11 -2 6 56 8
27 20 68 26 92 6 23 14 42 19 42 4 0 2 -24 -6 -52z m-563 8 c0 -8 -4 -17 -9
-21 -6 -3 -9 4 -8 15 1 23 17 28 17 6z m184 3 c-3 -6 2 -26 12 -45 15 -27 16
-36 5 -46 -7 -7 -11 -8 -9 -3 1 6 -3 25 -11 42 -12 30 -10 63 4 63 4 0 3 -5
-1 -11z m162 -16 c-3 -16 -9 -43 -12 -60 -4 -18 -11 -33 -15 -33 -12 0 -11 11
6 60 8 23 12 46 9 51 -3 5 0 9 7 9 7 0 9 -10 5 -27z m79 3 c-9 -13 -16 -39
-17 -59 -1 -20 -5 -34 -11 -30 -13 8 -1 72 19 94 23 26 28 24 9 -5z m55 -15
c0 -16 -9 -39 -20 -52 l-20 -24 16 33 c9 18 14 44 11 57 -2 14 0 22 4 19 5 -3
9 -18 9 -33z m140 5 c0 -23 -9 -44 -25 -63 l-26 -28 22 38 c12 22 19 48 17 62
-3 14 -1 25 3 25 5 0 9 -15 9 -34z m-676 -1 c-10 -15 -14 -37 -12 -55 3 -19 1
-29 -6 -27 -17 6 -10 66 10 88 24 26 28 24 8 -6z m216 -75 c0 -5 -2 -10 -4
-10 -3 0 -8 5 -11 10 -3 6 -1 10 4 10 6 0 11 -4 11 -10z"/>
</g>
</svg>
